<svg xmlns="http://www.w3.org/2000/svg" version="1.1" viewBox="40 205.79 415.61 83.09">
<path d="M0 0 C0.33 11.22 0.66 22.44 1 34 C4.96 33.01 8.92 32.02 13 31 C18.65504573 31.52000421 21.49861694 31.85000446 25.9375 35.25 C31.20834847 42.27779796 32.13454167 48.51724973 32.09765625 57.1484375 C32.0962413 57.80582916 32.09482635 58.46322083 32.09336853 59.14053345 C32.08781762 61.21873731 32.07527465 63.29682927 32.0625 65.375 C32.05747864 66.79296718 32.05291685 68.21093607 32.04882812 69.62890625 C32.03871962 73.08601421 32.01913533 76.54288338 32 80 C26.39 80 20.78 80 15 80 C14.95101562 77.95296875 14.90203125 75.9059375 14.8515625 73.796875 C14.79592295 71.80776094 14.74021631 69.81864813 14.68261719 67.82958984 C14.64440662 66.45044757 14.60953998 65.07120833 14.578125 63.69189453 C14.53230376 61.70583033 14.47333737 59.72008321 14.4140625 57.734375 C14.36693115 55.94338379 14.36693115 55.94338379 14.31884766 54.11621094 C14.0196713 51.19225461 13.52538162 49.47272389 12 47 C7.27519477 46.54555932 7.27519477 46.54555932 3.125 48.375 C0.79299287 51.74345474 0.81210882 54.24454876 0.68359375 58.3203125 C0.64169922 59.57714844 0.59980469 60.83398438 0.55664062 62.12890625 C0.51732422 63.44761719 0.47800781 64.76632812 0.4375 66.125 C0.39430488 67.46485751 0.35069027 68.80470156 0.30664062 70.14453125 C0.2002909 73.4295562 0.09961683 76.71476398 0 80 C-5.61 80 -11.22 80 -17 80 C-17 53.6 -17 27.2 -17 0 C-14 -1 -14 -1 0 0 Z M0 35 C1 37 1 37 1 37 Z " fill="#FEFEFE" transform="translate(57,207)"/>
<path d="M0 0 C0.33 15.84 0.66 31.68 1 48 C4.96 43.05 8.92 38.1 13 33 C17.8719057 31.76221908 19.64565991 31.42026372 24.25 32.0625 C25.19746094 32.13017578 26.14492187 32.19785156 27.12109375 32.26757812 C29.4299072 32.44248824 31.70673013 32.68578722 34 33 C32.60228894 36.14017636 30.94690485 38.32385237 28.55859375 40.78515625 C27.89279297 41.48060547 27.22699219 42.17605469 26.54101562 42.89257812 C25.13482725 44.3431587 23.72857691 45.79367921 22.32226562 47.24414062 C21.65775391 47.93830078 20.99324219 48.63246094 20.30859375 49.34765625 C19.39291626 50.29137085 19.39291626 50.29137085 18.45874023 51.25415039 C16.78197136 53.04472828 16.78197136 53.04472828 16 56 C16.68964844 56.75023437 17.37929687 57.50046875 18.08984375 58.2734375 C20.56204377 60.96435762 23.0284813 63.66050933 25.49414062 66.35742188 C26.90271232 67.89387946 28.31771409 69.42412975 29.734375 70.953125 C30.54390625 71.83484375 31.3534375 72.7165625 32.1875 73.625 C32.92355469 74.42164063 33.65960938 75.21828125 34.41796875 76.0390625 C36 78 36 78 36 80 C18.43772618 82.06658145 18.43772618 82.06658145 12.95800781 78.77246094 C9.19889954 75.38226685 6.57051631 71.32730524 4 67 C3.34 66.01 2.68 65.02 2 64 C0.01783097 65.98216903 0.58949076 69.83320059 0.4375 72.5625 C0.293125 75.016875 0.14875 77.47125 0 80 C-5.61 80 -11.22 80 -17 80 C-17 53.6 -17 27.2 -17 0 C-11.93157925 -2.53421037 -5.65411589 -0.37694106 0 0 Z M0 61 C1 63 1 63 1 63 Z " fill="#FEFEFE" transform="translate(202,207)"/>
<path d="M0 0 C0.66 -0.33 1.32 -0.66 2 -1 C4.88370333 -1.07194869 7.74239664 -1.09291708 10.625 -1.0625 C11.42679688 -1.05798828 12.22859375 -1.05347656 13.0546875 -1.04882812 C15.03649006 -1.03703168 17.01825433 -1.01909605 19 -1 C19.99639335 1.98918006 20.12894692 3.97257343 20.1328125 7.09375 C20.13474609 8.11605713 20.13667969 9.13836426 20.13867188 10.19165039 C20.13416016 11.28340576 20.12964844 12.37516113 20.125 13.5 C20.12306641 14.61173584 20.12113281 15.72347168 20.11914062 16.86889648 C20.06890342 26.61002959 19.61235947 36.27879339 19 46 C13.39 46 7.78 46 2 46 C1.67 45.34 1.34 44.68 1 44 C0.01 44.474375 -0.98 44.94875 -2 45.4375 C-9.07074135 48.41913792 -15.82554987 48.74206733 -23 46 C-29.32289765 42.38531692 -33.17394318 37.92602217 -36.25 31.3125 C-38.53456784 21.22232536 -36.61129283 13.88506979 -31.3125 5.25 C-21.98428424 -3.82610183 -11.83191194 -3.94397065 0 0 Z M-16 14 C-18.40777323 16.88932788 -18.96115399 18.69478136 -19.4375 22.4375 C-18.84015877 27.30156433 -17.03786536 30.38376196 -13.1875 33.4375 C-9.82536233 34.30204969 -7.35188798 33.82327073 -4 33 C-1.29432374 31.17660948 0.53728718 29.92542564 2 27 C2.54016597 22.49271349 2.60322525 19.05005877 0.3125 15.0625 C-5.26144759 10.09114134 -9.74425526 10.22048755 -16 14 Z " fill="#FDFDFD" transform="translate(130,241)"/>
<path d="M0 0 C1.88187395 0.57824262 1.88187395 0.57824262 3.7890625 -0.6328125 C9.3990625 -0.6328125 15.0090625 -0.6328125 20.7890625 -0.6328125 C20.7890625 14.8771875 20.7890625 30.3871875 20.7890625 46.3671875 C15.1790625 46.3671875 9.5690625 46.3671875 3.7890625 46.3671875 C3.4590625 45.3771875 3.1290625 44.3871875 2.7890625 43.3671875 C1.7371875 44.0271875 0.6853125 44.6871875 -0.3984375 45.3671875 C-6.69225059 48.49732545 -13.83692748 48.52204163 -20.578125 46.7421875 C-26.77816013 44.04022667 -31.4639686 39.04122518 -34.34765625 32.9765625 C-36.92774438 25.55151248 -36.77329682 18.41987494 -33.6484375 11.1796875 C-30.03793138 4.659616 -23.77526508 -0.29691174 -16.6484375 -2.3828125 C-10.99790747 -2.79376014 -5.43102467 -1.55446289 0 0 Z M-14.2109375 14.3671875 C-17.08756761 17.69802237 -18.19425634 19.43304252 -18.2734375 23.8671875 C-16.97515962 28.14386756 -15.51311189 30.35215871 -12.2109375 33.3671875 C-8.27810573 34.56108286 -6.24839878 34.81518214 -2.4609375 33.1796875 C0.83829826 30.5219698 2.42157846 28.57463506 3.6640625 24.4921875 C3.84641203 19.93344929 2.06724921 17.22055822 -0.4609375 13.5546875 C-5.24183451 10.31050739 -9.93454825 10.78426678 -14.2109375 14.3671875 Z " fill="#FDFDFD" transform="translate(271.2109375,240.6328125)"/>
<path d="M0 0 C2.85434908 0.6083039 4.19602272 2.12594696 5.90625 4.40625 C6.73125 3.74625 7.55625 3.08625 8.40625 2.40625 C12.3844231 -0.22705607 15.20026891 -0.1913349 19.90625 0.40625 C23.15660385 2.24340653 24.53350576 3.55307986 26.02685547 6.97119141 C27.13763908 11.31009354 27.15608387 15.28446733 27.1015625 19.7421875 C27.0987326 20.62153961 27.09590271 21.50089172 27.09298706 22.40689087 C27.08184712 25.19848594 27.05675411 27.9897529 27.03125 30.78125 C27.0212122 32.68098493 27.01208775 34.58072492 27.00390625 36.48046875 C26.98192806 41.12252107 26.9474411 45.76433002 26.90625 50.40625 C22.94625 50.40625 18.98625 50.40625 14.90625 50.40625 C14.57625 37.86625 14.24625 25.32625 13.90625 12.40625 C12.58625 12.40625 11.26625 12.40625 9.90625 12.40625 C8.89981232 16.63615358 8.6937473 20.78599123 8.58984375 25.11328125 C8.56906265 25.83867599 8.54828156 26.56407074 8.52687073 27.31144714 C8.46182785 29.61379113 8.40270227 31.91624282 8.34375 34.21875 C8.30052165 35.78581814 8.25690602 37.35287565 8.21289062 38.91992188 C8.10619332 42.74858936 8.00480031 46.5773645 7.90625 50.40625 C3.94625 50.40625 -0.01375 50.40625 -4.09375 50.40625 C-4.42375 37.86625 -4.75375 25.32625 -5.09375 12.40625 C-6.41375 12.07625 -7.73375 11.74625 -9.09375 11.40625 C-10.09847532 19.76704398 -10.40170433 28.11872413 -10.65625 36.53125 C-10.69956131 37.88282242 -10.74317902 39.23438506 -10.78710938 40.5859375 C-10.89232434 43.85929194 -10.99446479 47.13271125 -11.09375 50.40625 C-14.72375 50.40625 -18.35375 50.40625 -22.09375 50.40625 C-22.09375 36.87625 -22.09375 23.34625 -22.09375 9.40625 C-22.75375 9.40625 -23.41375 9.40625 -24.09375 9.40625 C-24.75375 7.09625 -25.41375 4.78625 -26.09375 2.40625 C-22.78304162 1.40515485 -19.79290231 1.30268866 -16.34375 1.34375 C-15.35890625 1.35277344 -14.3740625 1.36179688 -13.359375 1.37109375 C-12.23789062 1.38849609 -12.23789062 1.38849609 -11.09375 1.40625 C-10.76375 2.39625 -10.43375 3.38625 -10.09375 4.40625 C-9.59875 3.74625 -9.10375 3.08625 -8.59375 2.40625 C-5.53137372 -0.04365102 -3.82077668 -0.17107955 0 0 Z " fill="#FEFEFE" transform="translate(397.09375,235.59375)"/>
<path d="M0 0 C0 3.3 0 6.6 0 10 C-0.80824219 10.06058594 -1.61648438 10.12117187 -2.44921875 10.18359375 C-4.05216797 10.30927734 -4.05216797 10.30927734 -5.6875 10.4375 C-6.74324219 10.51871094 -7.79898438 10.59992188 -8.88671875 10.68359375 C-11.65086297 10.96451681 -14.28945741 11.40156852 -17 12 C-17.33 14.31 -17.66 16.62 -18 19 C-12.06 19 -6.12 19 0 19 C0 22.96 0 26.92 0 31 C-6.27 31 -12.54 31 -19 31 C-18.67 39.91 -18.34 48.82 -18 58 C-14.7 58.33 -11.4 58.66 -8 59 C-8 62.3 -8 65.6 -8 69 C-19.22 69 -30.44 69 -42 69 C-42 65.7 -42 62.4 -42 59 C-38.37 59 -34.74 59 -31 59 C-31 49.76 -31 40.52 -31 31 C-34.63 31 -38.26 31 -42 31 C-42 27.37 -42 23.74 -42 20 C-38.37 20 -34.74 20 -31 20 C-30.9175 18.80375 -30.835 17.6075 -30.75 16.375 C-30.04968128 10.86971674 -27.61703392 7.49264669 -23.5625 3.75 C-16.08542232 -1.35629695 -8.65427348 -1.19828402 0 0 Z " fill="#FDFDFD" transform="translate(369,217)"/>
<path d="M0 0 C5.61 0 11.22 0 17 0 C17.71756875 4.30541249 18.12609415 7.79702713 18.12939453 12.07446289 C18.13254669 13.25331558 18.13569885 14.43216827 18.13894653 15.64674377 C18.1369223 16.90929489 18.13489807 18.17184601 18.1328125 19.47265625 C18.13424759 21.4446122 18.13424759 21.4446122 18.13571167 23.45640564 C18.13718268 26.23779478 18.13505571 29.01915173 18.13037109 31.80053711 C18.12471321 35.32802726 18.12793142 38.85544064 18.13394356 42.38292789 C18.13759886 45.12766573 18.13638741 47.87238612 18.13381577 50.61712456 C18.13284257 52.53829372 18.13583139 54.45946361 18.13894653 56.38063049 C18.11814718 64.30481681 17.69318691 72.10544783 17 80 C11.39 80 5.78 80 0 80 C0 53.6 0 27.2 0 0 Z " fill="#FEFEFE" transform="translate(300,207)"/>
<path d="M0 0 C0 15.51 0 31.02 0 47 C-5.61 47 -11.22 47 -17 47 C-17.16719284 40.46734732 -17.32779468 33.93457932 -17.48217773 27.40161133 C-17.53568392 25.17728264 -17.59101963 22.9529972 -17.64819336 20.72875977 C-17.7298646 17.53932018 -17.80504388 14.34978501 -17.87890625 11.16015625 C-17.91945885 9.65860741 -17.91945885 9.65860741 -17.96083069 8.12672424 C-17.98092697 7.20584518 -18.00102325 6.28496613 -18.02172852 5.33618164 C-18.04171402 4.52121719 -18.06169952 3.70625275 -18.08229065 2.86659241 C-18 1 -18 1 -17 0 C-15.21484375 -0.3515625 -15.21484375 -0.3515625 -12.9375 -0.625 C-11.83728516 -0.76808594 -11.83728516 -0.76808594 -10.71484375 -0.9140625 C-7.13205114 -1.02747464 -3.55690655 -0.44461332 0 0 Z " fill="#FEFEFE" transform="translate(176,240)"/>
<path d="M0 0 C0.67160156 0.14824219 1.34320313 0.29648437 2.03515625 0.44921875 C4.60158249 1.61385982 5.53180525 2.88448179 6.9375 5.3125 C7.77450564 9.30287574 8.03852846 13.49358485 5.87109375 17.07421875 C3.1758764 19.6372456 0.48875199 20.64871192 -3.125 20.875 C-7.42366046 20.26090565 -9.07546996 19.3900461 -12.0625 16.3125 C-13.80149832 12.83450335 -13.65229036 9.106818 -13.0625 5.3125 C-9.38233839 0.40561785 -5.97888952 -1.44000229 0 0 Z " fill="#FDFDFD" transform="translate(448.0625,259.6875)"/>
<path d="M0 0 C2.80915461 1.27688846 4.50106764 2.31099817 6.3125 4.8125 C7.44543113 8.41728086 7.44543113 11.58271914 6.3125 15.1875 C4.44338765 17.76865515 2.96218928 18.77648704 0 20 C-4.04365602 20.20901602 -7.05791089 19.62805941 -10.4375 17.375 C-12.54867565 14.16601302 -12.93282489 11.82898112 -13 8 C-10.34308522 1.84714471 -6.73274027 -0.82441718 0 0 Z " fill="#FDFDFD" transform="translate(170,214)"/>
<path d="M0 0 C0.66 0 1.32 0 2 0 C1.67 0.66 1.34 1.32 1 2 C0.67 1.34 0.34 0.68 0 0 Z " fill="#FFFFFF" transform="translate(390,248)"/>
<path d="" fill="#FFFFFF" transform="translate(0,0)"/>
<path d="" fill="#FFFFFF" transform="translate(0,0)"/>
</svg>